<svg width="46" height="46" viewBox="0 0 46 46" fill="none" xmlns="http://www.w3.org/2000/svg">
<path fill-rule="evenodd" clip-rule="evenodd" d="M38.7359 10.0434L27.5234 3.83338C25.3053 2.60534 22.6114 2.60534 20.3934 3.83338L9.16172 10.0434C6.81089 11.3172 5.3414 13.7713 5.32838 16.445V28.52C5.33656 29.7079 5.62554 30.8769 6.17172 31.9317L7.01505 33.2734C6.81554 33.9323 6.71225 34.6166 6.70838 35.305C6.715 36.6587 7.09288 37.9846 7.80088 39.1384L5.06005 42.1667C4.49951 42.7279 4.49951 43.6371 5.06005 44.1984C5.32265 44.45 5.67394 44.5877 6.03755 44.5817C6.46205 44.581 6.86622 44.3998 7.14922 44.0834L9.77505 41.3234C12.6853 43.5794 16.8331 43.2559 19.3584 40.5759L20.4317 41.17C22.6499 42.4239 25.3627 42.4239 27.5809 41.17L38.7934 34.9409C41.1443 33.6575 42.6124 31.1984 42.6267 28.52V16.445C42.6023 13.759 41.109 11.302 38.7359 10.0434ZM14.1067 39.9242C11.6658 39.7671 9.76639 37.7414 9.76639 35.2955C9.76639 32.8495 11.6658 30.8239 14.1067 30.6667C16.5476 30.8239 18.447 32.8495 18.447 35.2955C18.447 37.7414 16.5476 39.7671 14.1067 39.9242ZM37.3367 32.3534C38.7338 31.5789 39.6108 30.1172 39.6367 28.52V16.3875C39.6108 14.7904 38.7338 13.3287 37.3367 12.5542L26.1242 6.32505C24.775 5.55951 23.1226 5.55951 21.7734 6.32505L10.5609 12.6117C9.16382 13.3862 8.28681 14.8479 8.26088 16.445V28.52C8.26908 29.1358 8.40619 29.743 8.66338 30.3025C10.0303 28.719 12.0149 27.8036 14.1067 27.7917C16.5559 27.8702 18.8138 29.1351 20.1598 31.1827C21.5058 33.2303 21.7717 35.8047 20.8726 38.0842L21.7734 38.5825C23.1226 39.3481 24.775 39.3481 26.1242 38.5825L37.3367 32.3534Z" fill="#F86060"/>
<path d="M33.2542 14.7009L24.9167 19.3584C24.3236 19.7008 23.593 19.7008 23 19.3584L14.6433 14.7009C13.9601 14.3294 13.1051 14.5773 12.7267 15.2567C12.366 15.9411 12.6117 16.7881 13.2825 17.1734L21.6583 21.8309C21.9503 21.9719 22.2512 22.0936 22.5592 22.1951V33.1201C22.5592 33.914 23.2028 34.5576 23.9967 34.5576C24.7906 34.5576 25.4342 33.914 25.4342 33.1201V22.2142C25.7373 22.1243 26.0322 22.0089 26.3158 21.8692L34.6533 17.2501C35.3283 16.855 35.5637 15.9928 35.183 15.3097C34.8023 14.6265 33.9452 14.373 33.2542 14.7392V14.7009Z" fill="#F86060"/>
</svg>
