<svg width="46" height="46" viewBox="0 0 46 46" fill="none" xmlns="http://www.w3.org/2000/svg">
<path d="M15.3333 17.25C15.3333 18.3085 16.1914 19.1666 17.25 19.1666C18.3085 19.1666 19.1666 18.3085 19.1666 17.25C19.1666 16.1914 18.3085 15.3333 17.25 15.3333C16.1914 15.3333 15.3333 16.1914 15.3333 17.25Z" fill="#F86060"/>
<path d="M26.8333 28.75C26.8333 29.8085 27.6914 30.6666 28.75 30.6666C29.8085 30.6666 30.6666 29.8085 30.6666 28.75C30.6666 27.6914 29.8085 26.8333 28.75 26.8333C27.6914 26.8333 26.8333 27.6914 26.8333 28.75Z" fill="#F86060"/>
<path d="M29.1086 18.9242C29.6699 18.3629 29.6699 17.4527 29.1086 16.8913C28.5472 16.3299 27.637 16.3299 27.0756 16.8913L16.2333 27.7336C15.6719 28.295 15.6719 29.2052 16.2333 29.7665C16.7947 30.3279 17.7049 30.3279 18.2663 29.7665L29.1086 18.9242Z" fill="#F86060"/>
<path fill-rule="evenodd" clip-rule="evenodd" d="M23.5463 1.97535C23.1822 1.95727 22.8174 1.95727 22.4533 1.97535C21.0477 2.04514 19.7536 2.45356 18.311 3.123C16.9066 3.77472 15.2747 4.71691 13.2102 5.90891L13.0932 5.97642C11.0286 7.1684 9.39672 8.11057 8.13012 9.00096C6.82907 9.91555 5.82833 10.832 5.06509 12.0144C4.86738 12.3207 4.68499 12.6366 4.5186 12.961C3.87623 14.2132 3.5829 15.5381 3.44136 17.1221C3.30357 18.6642 3.30358 20.5486 3.30359 22.9326V23.0676C3.30358 25.4516 3.30357 27.3359 3.44136 28.878C3.5829 30.4621 3.87623 31.787 4.5186 33.0392C4.68499 33.3635 4.86738 33.6794 5.06509 33.9857C5.82833 35.1681 6.82907 36.0846 8.13012 36.9992C9.39667 37.8896 11.0285 38.8317 13.093 40.0236L13.2101 40.0912C15.2747 41.2832 16.9066 42.2254 18.311 42.8772C19.7536 43.5466 21.0477 43.955 22.4533 44.0248C22.8174 44.0429 23.1822 44.0429 23.5463 44.0248C24.9519 43.955 26.246 43.5466 27.6886 42.8772C29.093 42.2254 30.7249 41.2832 32.7895 40.0912L32.9064 40.0237C34.971 38.8317 36.6029 37.8896 37.8695 36.9992C39.1705 36.0846 40.1713 35.1681 40.9345 33.9857C41.1322 33.6794 41.3146 33.3635 41.481 33.0392C42.1234 31.787 42.4167 30.4621 42.5582 28.878C42.696 27.336 42.696 25.4516 42.696 23.0677V22.9326C42.696 20.5487 42.696 18.6642 42.5582 17.1221C42.4167 15.5381 42.1234 14.2132 41.481 12.961C41.3146 12.6366 41.1322 12.3207 40.9345 12.0144C40.1713 10.832 39.1705 9.91555 37.8695 9.00096C36.6029 8.11057 34.9709 7.16839 32.9064 5.97642L32.7894 5.90891C30.7249 4.71691 29.0929 3.77472 27.6886 3.123C26.246 2.45356 24.9519 2.04514 23.5463 1.97535ZM22.5959 4.84681C22.865 4.83345 23.1346 4.83345 23.4037 4.84681C24.31 4.89181 25.2289 5.15106 26.4783 5.73088C27.7528 6.32229 29.2745 7.19932 31.4104 8.43249C33.5463 9.66566 35.0667 10.545 36.2161 11.353C37.3429 12.1451 38.0269 12.8113 38.519 13.5736C38.6651 13.8 38.8 14.0335 38.9229 14.2733C39.3371 15.0806 39.572 16.006 39.6946 17.378C39.8197 18.7774 39.821 20.5337 39.821 23.0001C39.821 25.4664 39.8197 27.2228 39.6946 28.6222C39.572 29.9941 39.3371 30.9196 38.9229 31.7269C38.8 31.9666 38.6651 32.2001 38.519 32.4265C38.0269 33.1889 37.3429 33.855 36.2161 34.6472C35.0667 35.4552 33.5463 36.3345 31.4104 37.5677C29.2745 38.8008 27.7528 39.6779 26.4783 40.2693C25.2289 40.8491 24.31 41.1084 23.4037 41.1533C23.1346 41.1667 22.865 41.1667 22.5959 41.1533C21.6896 41.1084 20.7707 40.8491 19.5212 40.2693C18.2468 39.6779 16.7251 38.8008 14.5892 37.5677C12.4533 36.3345 10.9329 35.4552 9.78351 34.6472C8.65663 33.855 7.97266 33.1889 7.48057 32.4265C7.33444 32.2001 7.19963 31.9666 7.07664 31.7269C6.66248 30.9196 6.42754 29.9941 6.30495 28.6222C6.17991 27.2228 6.17859 25.4664 6.17859 23.0001C6.17859 20.5337 6.17991 18.7774 6.30495 17.378C6.42754 16.006 6.66248 15.0806 7.07664 14.2733C7.19963 14.0335 7.33444 13.8 7.48057 13.5736C7.97266 12.8113 8.65663 12.1451 9.78351 11.353C10.9329 10.545 12.4533 9.66566 14.5892 8.43249C16.7251 7.19932 18.2468 6.32229 19.5212 5.73088C20.7707 5.15106 21.6896 4.89181 22.5959 4.84681Z" fill="#F86060"/>
</svg>
