<svg width="46" height="46" viewBox="0 0 46 46" fill="none" xmlns="http://www.w3.org/2000/svg">
<path fill-rule="evenodd" clip-rule="evenodd" d="M11.2972 39.4674H22.7065C23.5385 39.4674 24.213 40.1419 24.213 40.9739C24.213 41.8059 23.5385 42.4804 22.7065 42.4804H11.2972C6.12104 42.4694 1.9277 38.276 1.91665 33.0999V13.2541C1.91131 10.7609 2.89662 8.36768 4.65582 6.60095C6.41501 4.83422 8.80399 3.8387 11.2972 3.83337H19.0507C21.9683 3.83337 24.3335 6.19858 24.3335 9.11621C24.3444 10.3652 25.3543 11.3751 26.6033 11.386H34.3569C39.533 11.3971 43.7263 15.5904 43.7374 20.7666C43.7489 21.6166 43.0804 22.3208 42.2309 22.3534C41.837 22.3698 41.4534 22.2248 41.169 21.9517C40.8846 21.6787 40.724 21.3014 40.7244 20.9072C40.7512 19.1973 40.0935 17.5477 38.8976 16.3254C37.7017 15.1031 36.0668 14.4095 34.3569 14.399H26.6033C23.6857 14.399 21.3205 12.0338 21.3205 9.11621C21.2881 7.88289 20.2844 6.89697 19.0507 6.88657H11.2972C7.78051 6.88657 4.92967 9.73741 4.92967 13.2541V33.0999C4.92967 36.6165 7.78051 39.4674 11.2972 39.4674ZM30.1989 23.3979H38.2336C39.6986 23.3979 41.1037 23.9799 42.1396 25.0158C43.1755 26.0518 43.7575 27.4568 43.7575 28.9218V36.9565C43.7575 38.4216 43.1755 39.8266 42.1396 40.8625C41.1037 41.8984 39.6986 42.4804 38.2336 42.4804H30.1989C27.1481 42.4804 24.675 40.0073 24.675 36.9565V28.9218C24.675 25.871 27.1481 23.3979 30.1989 23.3979ZM38.2336 39.4674C39.6203 39.4674 40.7445 38.3432 40.7445 36.9565V28.9218C40.7445 27.5351 39.6203 26.4109 38.2336 26.4109H30.1989C28.8122 26.4109 27.688 27.5351 27.688 28.9218V36.9565C27.688 38.3432 28.8122 39.4674 30.1989 39.4674H38.2336ZM32.7097 29.9663C32.7097 29.1343 33.3842 28.4598 34.2163 28.4598C34.621 28.4542 35.0106 28.6139 35.2949 28.902C35.5792 29.1901 35.7337 29.5818 35.7228 29.9864C35.7228 30.3841 35.5634 30.7653 35.2803 31.0446C34.9972 31.324 34.6139 31.4782 34.2163 31.4728C33.3842 31.4728 32.7097 30.7983 32.7097 29.9663ZM32.7097 34.0239C32.7206 33.1964 33.3888 32.5282 34.2163 32.5173C35.0483 32.5173 35.7228 33.1918 35.7228 34.0239V36.6753C35.7228 37.5073 35.0483 38.1818 34.2163 38.1818C33.3842 38.1818 32.7097 37.5073 32.7097 36.6753V34.0239Z" fill="#F86060"/>
</svg>
