<svg width="46" height="46" viewBox="0 0 46 46" fill="none" xmlns="http://www.w3.org/2000/svg">
<path fill-rule="evenodd" clip-rule="evenodd" d="M23 8.14583C17.9719 8.14583 13.8958 12.2219 13.8958 17.25C13.8958 22.2781 17.9719 26.3542 23 26.3542C28.0281 26.3542 32.1042 22.2781 32.1042 17.25C32.1042 12.2219 28.0281 8.14583 23 8.14583ZM16.7708 17.25C16.7708 13.8097 19.5597 11.0208 23 11.0208C26.4403 11.0208 29.2292 13.8097 29.2292 17.25C29.2292 20.6903 26.4403 23.4792 23 23.4792C19.5597 23.4792 16.7708 20.6903 16.7708 17.25Z" fill="#F86060"/>
<path fill-rule="evenodd" clip-rule="evenodd" d="M31.5551 4.54965C29.366 4.31247 26.6068 4.31248 23.0867 4.3125H22.9133C19.3932 4.31248 16.634 4.31247 14.4449 4.54965C12.211 4.79168 10.4009 5.29445 8.85545 6.41729C7.91984 7.09705 7.09705 7.91984 6.41729 8.85545C5.29445 10.4009 4.79168 12.211 4.54965 14.4449C4.31247 16.634 4.31248 19.3932 4.3125 22.9133V23.0867C4.31248 26.6068 4.31247 29.366 4.54965 31.5551C4.79168 33.789 5.29445 35.5991 6.41729 37.1445C7.06612 38.0376 7.84525 38.8278 8.72843 39.489C8.77051 39.5205 8.81285 39.5518 8.85545 39.5827C10.4009 40.7055 12.211 41.2083 14.4449 41.4504C16.634 41.6875 19.3931 41.6875 22.9131 41.6875H23.0868C26.6067 41.6875 29.366 41.6875 31.5551 41.4504C33.789 41.2083 35.5991 40.7055 37.1445 39.5827C37.1502 39.5786 37.1558 39.5745 37.1615 39.5704C37.2009 39.5416 37.2401 39.5126 37.2792 39.4833C38.1592 38.8233 38.9357 38.035 39.5827 37.1445C40.7055 35.5991 41.2083 33.789 41.4504 31.5551C41.6875 29.366 41.6875 26.6068 41.6875 23.0869V22.9132C41.6875 19.3933 41.6875 16.634 41.4504 14.4449C41.2083 12.211 40.7055 10.4009 39.5827 8.85545C38.9029 7.91984 38.0802 7.09705 37.1445 6.41729C35.5991 5.29445 33.789 4.79168 31.5551 4.54965ZM10.5453 8.74322C11.519 8.0358 12.7653 7.62345 14.7546 7.40792C16.7708 7.18947 19.3745 7.1875 23 7.1875C26.6255 7.1875 29.2292 7.18947 31.2454 7.40792C33.2347 7.62345 34.481 8.0358 35.4547 8.74322C36.1462 9.24565 36.7544 9.8538 37.2568 10.5453C37.9642 11.519 38.3766 12.7653 38.5921 14.7546C38.8105 16.7708 38.8125 19.3745 38.8125 23C38.8125 26.6255 38.8105 29.2292 38.5921 31.2454C38.3858 33.1494 37.9992 34.3728 37.3462 35.3279C36.1045 31.7762 32.7251 29.2292 28.75 29.2292H17.25C13.275 29.2292 9.89541 31.7763 8.65378 35.3278C8.00078 34.3727 7.6142 33.1494 7.40792 31.2454C7.18947 29.2292 7.1875 26.6255 7.1875 23C7.1875 19.3745 7.18947 16.7708 7.40792 14.7546C7.62345 12.7653 8.0358 11.519 8.74322 10.5453C9.24565 9.8538 9.8538 9.24565 10.5453 8.74322ZM28.75 32.1042C31.9388 32.1042 34.569 34.5011 34.9355 37.5906C34.0386 38.0979 32.8986 38.413 31.2454 38.5921C29.2292 38.8105 26.6255 38.8125 23 38.8125C19.3745 38.8125 16.7708 38.8105 14.7546 38.5921C13.1014 38.413 11.9614 38.0979 11.0646 37.5906C11.4313 34.5009 14.0611 32.1042 17.25 32.1042H28.75Z" fill="#F86060"/>
</svg>
